<?xml version="1.0" standalone="no"?>
<!DOCTYPE svg PUBLIC "-//W3C//DTD SVG 20010904//EN"
 "http://www.w3.org/TR/2001/REC-SVG-20010904/DTD/svg10.dtd">
<svg version="1.0" xmlns="http://www.w3.org/2000/svg"
 width="512.000000pt" height="512.000000pt" viewBox="0 0 512.000000 512.000000"
 preserveAspectRatio="xMidYMid meet">

<g transform="translate(0.000000,512.000000) scale(0.100000,-0.100000)"
fill="#000000" stroke="none">
<path d="M2135 5114 c-130 -29 -189 -54 -270 -114 -113 -85 -192 -203 -224
-337 l-12 -51 -65 -4 c-50 -3 -69 -9 -87 -26 -21 -21 -22 -32 -25 -209 -2
-103 -1 -197 3 -210 11 -46 40 -63 105 -63 l60 0 0 -1540 0 -1540 -60 0 c-65
0 -94 -17 -105 -63 -4 -13 -5 -107 -3 -210 3 -177 4 -188 25 -209 18 -17 37
-23 87 -26 l65 -4 12 -51 c49 -205 205 -368 414 -433 55 -17 98 -19 505 -19
407 0 450 2 505 19 209 65 365 228 414 433 l12 51 65 4 c50 3 69 9 87 26 21
21 22 32 25 209 2 103 1 197 -3 210 -11 46 -40 63 -105 63 l-60 0 0 1540 0
1540 60 0 c65 0 94 17 105 63 4 13 5 107 3 210 -3 177 -4 188 -25 209 -18 17
-37 23 -87 26 l-65 4 -12 51 c-48 201 -198 361 -404 431 -56 18 -88 20 -490
22 -236 1 -439 0 -450 -2z m841 -175 c155 -29 266 -124 325 -279 l19 -50 -760
0 -760 0 19 50 c58 151 162 244 311 276 73 16 762 18 846 3z m352 -996 c2
-102 -1 -153 -8 -153 -16 0 -983 291 -1000 301 -9 5 205 8 495 6 l510 -2 3
-152z m-763 -791 l760 -228 3 -253 c2 -237 1 -252 -15 -247 -191 57 -1355 405
-1425 427 l-98 30 0 249 c0 138 3 250 8 250 4 0 349 -103 767 -228z m38 -1377
l727 -218 0 -250 0 -249 -22 4 c-13 2 -359 105 -770 229 l-748 224 0 252 0
252 43 -13 c23 -7 369 -111 770 -231z m698 -1315 c-59 -155 -170 -250 -325
-279 -80 -15 -752 -15 -832 0 -155 29 -266 124 -325 279 l-19 50 760 0 760 0
-19 -50z"/>
<path d="M904 4256 c-36 -16 -43 -30 -54 -108 -24 -168 -146 -287 -308 -304
-77 -8 -112 -36 -112 -87 0 -58 24 -77 120 -93 50 -9 102 -25 127 -40 95 -55
157 -150 173 -263 10 -75 22 -96 60 -109 36 -13 80 0 98 28 7 11 16 49 21 85
24 166 143 283 307 301 96 10 135 58 103 128 -13 28 -44 42 -114 51 -71 9
-167 58 -211 108 -48 55 -74 114 -85 195 -14 96 -60 136 -125 108z m102 -434
l69 -68 -68 -66 -68 -66 -67 66 -67 66 65 67 c36 37 66 68 66 68 1 1 33 -30
70 -67z"/>
<path d="M4138 1949 c-26 -15 -36 -38 -48 -114 -27 -166 -137 -272 -308 -296
-74 -10 -112 -39 -112 -85 0 -59 26 -78 125 -94 163 -26 269 -132 295 -295 6
-38 15 -76 21 -86 23 -43 84 -51 124 -16 21 18 28 35 35 90 21 170 135 284
308 308 82 12 112 36 112 89 0 54 -30 77 -114 89 -169 24 -281 136 -305 305
-12 81 -37 116 -85 116 -17 0 -39 -5 -48 -11z m110 -429 l69 -69 -67 -68 -68
-68 -69 70 -70 71 37 28 c21 15 51 46 66 67 16 21 30 39 30 39 1 0 33 -31 72
-70z"/>
</g>
</svg>
